<?xml version="1.0" standalone="no"?>
<!DOCTYPE svg PUBLIC "-//W3C//DTD SVG 20010904//EN"
 "http://www.w3.org/TR/2001/REC-SVG-20010904/DTD/svg10.dtd">
<svg version="1.0" xmlns="http://www.w3.org/2000/svg"
 width="32.000000pt" height="32.000000pt" viewBox="0 0 32.000000 32.000000"
 preserveAspectRatio="xMidYMid meet">
<metadata>
Created by potrace 1.16, written by Peter Selinger 2001-2019
</metadata>
<g transform="translate(0.000000,32.000000) scale(0.011594,-0.011594)"
fill="#000000" stroke="none">
<path d="M1220 2700 c-11 -11 -31 -22 -45 -26 -14 -3 -25 -10 -25 -15 0 -5 -6
-9 -14 -9 -8 0 -22 -8 -32 -17 -10 -10 -19 -17 -21 -15 -2 1 -14 2 -28 2 -31
0 -84 -50 -146 -136 -24 -34 -48 -62 -54 -63 -5 0 -23 -11 -40 -23 -16 -12
-37 -23 -45 -23 -8 0 -16 -10 -18 -22 -3 -23 -32 -54 -32 -34 0 21 -20 11 -26
-14 -4 -18 -1 -32 11 -45 14 -15 16 -28 11 -57 -4 -21 -9 -60 -12 -88 -2 -27
-7 -66 -11 -85 -3 -19 -5 -39 -4 -43 1 -5 -8 -11 -19 -14 -15 -4 -20 -14 -21
-42 -2 -42 -3 -54 -18 -142 -6 -36 -11 -140 -12 -232 0 -153 -2 -167 -18 -167
-32 0 -55 -37 -54 -88 1 -48 29 -183 64 -303 19 -66 47 -99 83 -99 42 0 86
-143 86 -281 0 -53 -3 -111 -6 -128 -6 -29 -10 -31 -48 -31 -90 -1 -149 -50
-176 -145 -8 -27 -24 -53 -44 -69 -17 -14 -42 -35 -56 -46 l-25 -21 30 15 c58
30 95 71 110 123 27 92 65 123 160 132 l60 6 10 111 c11 126 15 127 75 6 12
-23 31 -47 41 -53 10 -5 19 -16 19 -23 0 -7 18 -26 41 -42 22 -15 46 -36 53
-46 7 -10 22 -19 34 -21 12 -2 25 -6 28 -10 4 -4 15 -7 23 -7 9 0 25 -11 35
-25 10 -13 22 -23 25 -20 4 2 25 -2 47 -10 55 -20 122 -18 172 5 23 10 43 19
45 19 6 -1 44 13 57 21 8 5 33 19 56 31 37 19 74 72 74 105 0 5 9 15 20 22 19
12 20 10 20 -47 0 -33 3 -62 8 -64 4 -3 6 29 4 70 -3 72 -2 77 26 107 34 36
82 127 82 155 0 11 11 32 24 48 29 34 74 138 109 248 37 118 39 142 20 182
-15 33 -15 38 5 96 12 34 29 98 38 142 9 44 20 87 25 96 4 9 15 56 23 105 9
49 20 108 25 132 4 23 6 63 3 87 -2 26 2 63 11 92 25 73 40 196 28 224 -5 13
-12 35 -15 49 -3 14 -29 52 -57 85 -29 33 -57 72 -63 87 -30 71 -161 177 -220
178 -11 0 -27 7 -36 15 -12 10 -25 12 -46 7 -36 -10 -64 -5 -64 13 0 12 -27
30 -42 27 -5 -1 -8 3 -8 9 0 5 -5 7 -10 4 -15 -9 -50 4 -50 19 0 17 -74 11
-104 -9 -13 -9 -30 -13 -39 -9 -10 3 -17 -1 -20 -13 -5 -17 -5 -17 -6 0 -1 14
-6 17 -22 12 -15 -5 -19 -4 -14 5 4 6 -2 20 -14 31 -20 19 -21 19 -41 -1z
m186 -531 c96 -25 101 -26 158 -34 72 -11 145 -66 271 -205 49 -54 50 -59 49
-350 0 -219 -4 -293 -18 -364 -22 -114 -67 -238 -100 -272 -14 -16 -28 -41
-31 -56 -4 -16 -11 -26 -16 -22 -5 3 -9 -2 -9 -10 0 -9 -4 -16 -8 -16 -5 0
-15 -12 -23 -28 -36 -70 -53 -53 -38 39 10 62 4 106 -20 133 -20 23 -66 47
-75 39 -6 -6 -10 11 -7 34 1 6 -6 10 -16 8 -19 -3 -53 21 -53 37 0 5 4 7 9 4
5 -3 11 4 14 16 6 22 -6 38 -29 38 -6 0 -28 -11 -48 -25 -42 -29 -72 -26 -121
10 -39 29 -71 36 -102 24 -18 -7 -24 -15 -20 -29 3 -11 -1 -21 -9 -24 -8 -3
-14 -14 -14 -25 0 -11 -4 -23 -10 -26 -6 -4 -7 1 -3 12 6 16 5 16 -10 4 -9 -7
-17 -10 -17 -5 0 4 -5 3 -11 -3 -6 -6 -17 -9 -24 -7 -7 3 -31 -13 -53 -36 -40
-42 -40 -42 -36 -108 2 -37 7 -74 10 -84 3 -10 -2 -21 -15 -27 -22 -12 -38
-15 -28 -4 10 10 -14 34 -27 26 -6 -3 -8 -3 -4 2 11 12 -12 47 -28 41 -7 -3
-13 -2 -13 2 1 4 1 22 0 40 -1 29 -3 32 -21 22 -20 -11 -30 3 -10 15 6 3 10
11 10 17 0 7 -6 6 -15 -2 -18 -15 -20 0 -2 20 10 12 9 12 -6 0 -17 -12 -20
-12 -30 5 -7 11 -13 30 -14 43 -1 13 -6 29 -11 35 -5 7 -12 30 -16 52 -4 22
-14 64 -23 94 -15 50 -15 64 1 205 17 139 45 245 68 254 4 2 8 14 8 27 0 13 5
27 11 31 11 6 9 33 -9 127 -5 26 -5 47 0 47 4 0 8 5 8 12 0 6 16 44 36 85 39
78 92 125 157 139 18 3 37 10 42 14 6 5 53 11 104 14 52 3 96 8 99 11 11 10
60 5 138 -16z m-740 -807 c14 -12 23 -34 27 -72 3 -30 13 -69 22 -87 11 -22
16 -63 18 -135 2 -138 -18 -175 -73 -130 -17 14 -31 54 -61 173 -42 170 -47
214 -23 247 18 27 60 29 90 4z m1262 -158 c2 -13 -6 -25 -23 -34 -21 -11 -25
-21 -25 -57 0 -24 4 -43 8 -43 11 0 32 44 33 68 0 9 3 12 5 5 12 -28 -87 -295
-119 -322 -22 -18 -22 -3 -2 65 8 27 19 81 25 119 15 99 61 226 80 223 8 -2
16 -12 18 -24z m-768 -326 c24 -8 24 -8 5 8 -19 15 -18 16 25 10 25 -4 98 -9
163 -13 64 -3 117 -10 117 -14 0 -5 8 -8 18 -7 81 7 104 -24 79 -103 -8 -25
-13 -60 -12 -77 1 -21 -3 -32 -12 -32 -7 0 -13 -5 -13 -11 0 -5 -20 -19 -45
-30 -25 -11 -45 -26 -45 -34 0 -8 -5 -17 -12 -21 -8 -5 -9 0 -6 14 4 12 2 22
-4 22 -5 0 -6 5 -2 11 4 8 -1 9 -16 4 -17 -5 -21 -3 -19 12 2 10 0 23 -4 30
-10 15 2 43 18 43 16 0 27 27 20 49 -8 26 -56 49 -110 52 -71 3 -85 -5 -85
-53 0 -21 4 -37 9 -34 5 3 14 -1 21 -9 9 -11 5 -21 -22 -48 -18 -19 -39 -32
-46 -30 -6 3 -10 9 -6 14 3 5 -2 9 -10 9 -9 0 -16 -6 -16 -12 0 -10 -2 -10 -9
0 -4 8 -12 14 -17 15 -5 1 -8 8 -7 16 1 9 -2 10 -10 2 -13 -13 -37 36 -37 75
0 16 -4 22 -14 18 -23 -9 -40 33 -27 63 6 13 11 33 11 45 0 12 3 19 6 15 4 -3
13 0 21 8 14 15 35 13 93 -7z"/>
<path d="M967 1751 c-21 -8 -83 -84 -93 -113 -7 -23 1 -33 34 -43 16 -5 22 -2
22 9 0 22 58 56 96 56 37 0 94 -18 113 -36 12 -11 9 -14 -20 -22 -19 -6 -28
-11 -21 -11 7 -1 11 -5 8 -10 -3 -5 -35 -12 -71 -16 -36 -3 -67 -11 -70 -16
-4 -5 -12 -9 -18 -9 -7 0 -1 9 13 20 14 11 20 20 14 20 -15 0 -55 -45 -47 -54
4 -4 -3 -9 -15 -13 -12 -3 -22 -9 -22 -13 0 -15 30 -19 54 -9 17 8 29 8 42 0
18 -10 18 -10 -1 -12 -11 -1 -24 -1 -29 0 -21 4 21 -33 51 -46 48 -20 102 -16
161 12 54 25 65 40 35 48 -14 4 -13 5 4 6 12 0 25 6 28 11 4 6 15 8 25 5 13
-4 20 0 25 15 3 11 10 20 15 20 5 0 9 17 8 38 0 20 1 42 2 47 6 29 -4 48 -41
75 -29 21 -48 28 -67 24 -15 -3 -67 2 -116 10 -98 18 -94 17 -119 7z"/>
<path d="M1504 1678 c-15 -13 -25 -17 -21 -10 6 8 3 10 -7 6 -9 -3 -16 -11
-17 -18 -1 -6 -2 -25 -4 -42 -1 -16 -6 -40 -9 -52 -9 -26 1 -62 16 -62 17 0
65 -45 61 -57 -2 -6 12 -24 32 -39 28 -21 51 -29 96 -32 76 -6 78 12 4 29 -30
7 -60 18 -66 26 -14 17 -11 16 41 -2 25 -9 57 -13 75 -9 23 4 34 2 38 -9 6
-17 67 -41 67 -26 0 5 -11 27 -24 48 -27 42 -66 74 -111 91 -43 16 -16 34 47
31 35 -1 62 -8 80 -21 49 -36 52 -18 7 51 -21 34 -41 51 -62 58 -18 5 -55 18
-82 29 -28 11 -62 18 -77 15 -14 -3 -29 0 -32 6 -10 16 -20 14 -52 -11z"/>
</g>
</svg>
